<svg id="SvgjsSvg1018" width="288" height="288" xmlns="http://www.w3.org/2000/svg" version="1.1" xmlns:xlink="http://www.w3.org/1999/xlink" xmlns:svgjs="http://svgjs.com/svgjs"><defs id="SvgjsDefs1019"></defs><g id="SvgjsG1020" transform="matrix(0.9167,0,0,0.9167,12.000405932235736,11.995200000000011)"><!--?xml version="1.0" encoding="UTF-8"?--><svg xmlns="http://www.w3.org/2000/svg" xmlns:xlink="http://www.w3.org/1999/xlink" version="1.1" id="Layer_1" x="0px" y="0px" viewBox="0 0 128 128" xml:space="preserve" width="288" height="288"><style type="text/css">.st0{fill:none;stroke:#FFFFFF;stroke-width:4;stroke-linecap:round;stroke-linejoin:round;stroke-miterlimit:10;} .st1{fill:#ffffff;}</style><path class="st1 color39BAEB svgShape" d="M24.4 0c2.1 1.9 4 3.6 6 5.3 10.1 9 20.2 17.9 30.3 26.9.4.4.6.8.6 1.4v39.8c0 .6-.1.9-.8 1.1-1.4.4-2.8 1-4.3 1.6-.1-.1-.3-.2-.5-.4L24.8 44.8c-.2-.2-.4-.6-.4-.9V.7c-.1-.2 0-.4 0-.7z" fill="#ffffff"></path><path class="st1 color39BAEB svgShape" d="M51.7 80.5c-.6 1.4-1.2 3.1-1.8 4.8-.1.2-.4.4-.7.4-.8.1-1.7 0-2.5 0H24.5V52.9c9 9.3 18.1 18.5 27.2 27.6z" fill="#ffffff"></path><path class="st1 color39BAEB svgShape" d="M38.1 118.5c6-6 11.9-12 17.7-17.9 1.8.8 3.6 1.5 5.4 2.3V128c-8.8-.7-16.5-3.8-23.1-9.5z" fill="#ffffff"></path><path class="st1 color39BAEB svgShape" d="M90.1 118.4c-6.7 5.7-14.4 8.9-23.2 9.6v-.9-23.5c0-.6.2-.9.8-1.1 1.4-.5 2.7-1.2 4.1-1.7.2-.1.7-.1.8 0 5.8 5.8 11.6 11.7 17.5 17.6z" fill="#ffffff"></path><path class="st1 color39BAEB svgShape" d="M24.4 91.2h24.5c.7 0 .9.2 1.2.9.5 1.5 1.2 3 1.7 4.4C46 102.4 40 108.3 34 114.4c-5.7-6.6-8.8-14.3-9.6-23.2z" fill="#ffffff"></path><path class="st1 color39BAEB svgShape" d="M90 58.5c-6 6-11.9 12-17.7 17.8-1.8-.7-3.4-1.3-5.1-1.9-.2-.1-.3-.4-.4-.6-.1-.1 0-.3 0-.4V50v-1c8.9.6 16.6 3.9 23.2 9.5z" fill="#ffffff"></path><path class="st1 color39BAEB svgShape" d="M94 62.5c5.7 6.7 8.9 14.4 9.6 23.2H78.4c-.8-1.8-1.5-3.6-2.2-5.2 5.9-6 11.8-12 17.8-18z" fill="#ffffff"></path><path class="st1 color39BAEB svgShape" d="M103.7 91.2c-.7 8.7-3.8 16.3-9.3 22.8-6-6-11.9-12-17.9-18 .5-1.4 1.1-2.9 1.7-4.4.1-.2.5-.4.7-.4H103.7z" fill="#ffffff"></path><metadata><rdf:rdf xmlns:rdf="http://www.w3.org/1999/02/22-rdf-syntax-ns#" xmlns:rdfs="http://www.w3.org/2000/01/rdf-schema#" xmlns:dc="http://purl.org/dc/elements/1.1/"><rdf:description about="https://iconscout.com/legal#licenses" dc:title="bitshares" dc:description="bitshares" dc:publisher="Iconscout" dc:date="2018-01-14" dc:format="image/svg+xml" dc:language="en"><dc:creator><rdf:bag><rdf:li>Icon Mafia</rdf:li></rdf:bag></dc:creator></rdf:description></rdf:rdf></metadata></svg></g></svg>
