<svg width="512" height="512" xmlns="http://www.w3.org/2000/svg">

 <g>
  <title>background</title>
  <rect fill="none" id="canvas_background" height="402" width="582" y="-1" x="-1"/>
 </g>
 <g>
  <title>Layer 1</title>
  <path fill="#ffffff" id="svg_10" d="m256,0c-141.4,0 -256,114.6 -256,256c0,141.4 114.6,256 256,256c141.4,0 256,-114.6 256,-256c0,-141.4 -114.6,-256 -256,-256zm0,480.7c-124.1,0 -224.7,-100.6 -224.7,-224.7c0,-124.1 100.6,-224.7 224.7,-224.7c124.1,0 224.7,100.6 224.7,224.7c0,124.1 -100.6,224.7 -224.7,224.7z"/>
  <path fill="#ffffff" id="svg_12" d="m256,56.9c-110,0 -199.1,89.1 -199.1,199.1c0,110 89.2,199.1 199.1,199.1s199.1,-89.1 199.1,-199.1c0,-110 -89.1,-199.1 -199.1,-199.1zm-3.7,367.1l-87.5,-135.1l87.5,46.4l0,88.7zm0,-106.8l-80.6,-42.7l80.6,-34.7l0,77.4zm0,-90.1l-89.4,38.5l89.4,-163.7l0,125.2zm8.5,12.6l80.9,34.8l-80.9,42.9l0,-77.7zm0,184.8l0,-89l87.9,-46.6l-87.9,135.6zm0,-197.5l0,-125.7l89.8,164.3l-89.8,-38.6z"/>
 </g>
</svg>