<svg id="SvgjsSvg1037" width="288" height="288" xmlns="http://www.w3.org/2000/svg" version="1.1" xmlns:xlink="http://www.w3.org/1999/xlink" xmlns:svgjs="http://svgjs.com/svgjs"><defs id="SvgjsDefs1038"></defs><g id="SvgjsG1039"><!--?xml version="1.0" encoding="UTF-8"?--><svg xmlns="http://www.w3.org/2000/svg" xmlns:xlink="http://www.w3.org/1999/xlink" version="1.1" id="Layer_1" x="0px" y="0px" viewBox="0 0 128 128" xml:space="preserve" width="288" height="288"><style type="text/css">.st0{fill:none;stroke:#FFFFFF;stroke-width:4;stroke-linecap:round;stroke-linejoin:round;stroke-miterlimit:10;}</style><path style="fill:#FFFFFF;" d="M61.5 0c-.4 3.3-.6 6.1-1 8.8-1.3 9.3-.4 18.2 3.8 26.8C70 47.1 75.4 58.7 80.8 70.3c3.3 7.1 6.3 14.4 7.9 22.1.7 3.7.4 7.1-1.4 10.4-5.4 9.4-12.4 17.3-20.8 24.1-.8.6-1.9.8-2.8 1.2 0-1-.1-2.1.1-3 1.1-4.4 2.5-8.8 3.5-13.3 1.3-5.7.7-11.4-1.7-16.8-4.4-9.7-9-19.4-13.5-29.1-4.3-9.2-8.7-18.3-11.4-28.1-1.4-5.1-2.4-10.3 0-15.3C45 13.6 51.6 6.7 59.6 1c.3-.4.8-.5 1.9-1z"></path><path style="fill:#FFFFFF;" d="M21 13.8c0 1 .1 1.7 0 2.3-.8 5.7-1.5 11.4-.4 17.1.5 2.4 1.3 4.8 2.3 7.1 4.5 9.7 9.2 19.2 13.5 28.9 2.4 5.5 4.2 11.3 6.1 17.1.9 2.7.4 5.5-1 8.1-4.2 7.4-9.8 13.6-16.4 19-.6.5-1.4.8-2.1 1.2-.2-.1-.3-.2-.5-.3.1-.9.2-1.8.4-2.6.9-3.5 1.9-7 2.7-10.5.9-4.4.5-8.7-1.3-12.8-4.1-8.9-8.2-17.7-12.3-26.5-3.2-6.9-6.3-13.7-8-21-1-4.3-.3-8.2 1.9-11.9 3.4-5.6 7.8-10.2 13-14.1.5-.3 1.2-.6 2.1-1.1z"></path><path style="fill:#FFFFFF;" d="M102.9 14.2c-.2 1.7-.4 3.5-.6 5.2-.7 5-1.1 10.2.3 15.1 1.1 3.8 2.8 7.5 4.4 11.1 4.7 10.4 9.7 20.7 14.2 31.1 1.5 3.5 2.4 7.3 3.1 11.1.3 1.8 0 4-.9 5.7-4 8-10 14.4-17 20-.5.4-1.2.6-2.3 1.2.2-1.3.2-2.1.4-2.9 1-4.2 2.1-8.3 3-12.5.8-3.9 0-7.7-1.7-11.3-4.1-8.9-8.3-17.8-12.4-26.7-3.1-6.7-6.2-13.5-7.8-20.8-.9-4.3-.2-8.1 2.1-11.8 3.3-5.5 7.7-10 12.8-13.8.6-.4 1.2-.7 1.8-1 .3.2.4.3.6.3z"></path><metadata><rdf:rdf xmlns:rdf="http://www.w3.org/1999/02/22-rdf-syntax-ns#" xmlns:rdfs="http://www.w3.org/2000/01/rdf-schema#" xmlns:dc="http://purl.org/dc/elements/1.1/"><rdf:description about="https://iconscout.com/legal#licenses" dc:title="steem" dc:description="steem" dc:publisher="Iconscout" dc:date="2018-01-14" dc:format="image/svg+xml" dc:language="en"><dc:creator><rdf:bag><rdf:li>Icon Mafia</rdf:li></rdf:bag></dc:creator></rdf:description></rdf:rdf></metadata></svg></g></svg>
